# xmcd
# 
# Track frame offsets:
#     150
#     16849
#     32449
#     55298
#     64252
#     83661
#     108306
#     120847
#     142552
#     165791
#     178966
#     196891
#     212513
#     223973
#     243289
#     258430
#     273526
# 
# Disc length: 3955
# 
# Revision: 1
# Processed by: cddbd v1.5.2PL0 Copyright (c) Steve Scherf et al.
# Submitted via: fre:ac v1.0.31
# 
DISCID=df0f7111
DTITLE=Les Souillés De Fond De Cale - L'esprit de la morue
DYEAR=0
DGENRE=Marins
TTITLE0=L'engagement
TTITLE1=Rue des trois matelots
TTITLE2=La morue
TTITLE3=La tonne
TTITLE4=Cecilia
TTITLE5=Gwerz des goemoniers
TTITLE6=Le prunier
TTITLE7=Mister Stan
TTITLE8=Isabeau
TTITLE9=Les filles de NY city
TTITLE10=La reine mab
TTITLE11=C'est dans la ville de La Rochelle
TTITLE12=Le joli navire
TTITLE13=La melasse diabolique
TTITLE14=La plaque
TTITLE15=Quinze marins
TTITLE16=Les souilles
EXTD=
EXTT0=
EXTT1=
EXTT2=
EXTT3=
EXTT4=
EXTT5=
EXTT6=
EXTT7=
EXTT8=
EXTT9=
EXTT10=
EXTT11=
EXTT12=
EXTT13=
EXTT14=
EXTT15=
EXTT16=
PLAYORDER=
